<?xml version="1.0" encoding="utf-8" ?>
<svg baseProfile="tiny" height="1980.0" version="1.2" width="1530.0" xmlns="http://www.w3.org/2000/svg" xmlns:ev="http://www.w3.org/2001/xml-events" xmlns:xlink="http://www.w3.org/1999/xlink"><defs /><line stroke="lightgray" x1="100.0" x2="620.0" y1="60.0" y2="60.0" /><line stroke="lightgray" x1="100.0" x2="620.0" y1="100.0" y2="100.0" /><text fill="rgb(100, 100, 100)" font-family="Lato, Fira Code, sans-serif" font-size="20px" text-anchor="end" x="92.0" y="106.0">0</text><line stroke="lightgray" x1="100.0" x2="620.0" y1="140.0" y2="140.0" /><text fill="rgb(100, 100, 100)" font-family="Lato, Fira Code, sans-serif" font-size="20px" text-anchor="end" x="92.0" y="146.0">10</text><line stroke="lightgray" x1="100.0" x2="620.0" y1="180.0" y2="180.0" /><text fill="rgb(100, 100, 100)" font-family="Lato, Fira Code, sans-serif" font-size="20px" text-anchor="end" x="92.0" y="186.0">20</text><line stroke="lightgray" x1="100.0" x2="620.0" y1="220.0" y2="220.0" /><text fill="rgb(100, 100, 100)" font-family="Lato, Fira Code, sans-serif" font-size="20px" text-anchor="end" x="92.0" y="226.0">30</text><line stroke="lightgray" x1="100.0" x2="620.0" y1="260.0" y2="260.0" /><text fill="rgb(100, 100, 100)" font-family="Lato, Fira Code, sans-serif" font-size="20px" text-anchor="end" x="92.0" y="266.0">40</text><line stroke="lightgray" x1="100.0" x2="620.0" y1="300.0" y2="300.0" /><text fill="rgb(100, 100, 100)" font-family="Lato, Fira Code, sans-serif" font-size="20px" text-anchor="end" x="92.0" y="306.0">50</text><line stroke="lightgray" x1="100.0" x2="620.0" y1="340.0" y2="340.0" /><text fill="rgb(100, 100, 100)" font-family="Lato, Fira Code, sans-serif" font-size="20px" text-anchor="end" x="92.0" y="346.0">60</text><line stroke="lightgray" x1="100.0" x2="620.0" y1="380.0" y2="380.0" /><text fill="rgb(100, 100, 100)" font-family="Lato, Fira Code, sans-serif" font-size="20px" text-anchor="end" x="92.0" y="386.0">70</text><line stroke="lightgray" x1="100.0" x2="620.0" y1="420.0" y2="420.0" /><text fill="rgb(100, 100, 100)" font-family="Lato, Fira Code, sans-serif" font-size="20px" text-anchor="end" x="92.0" y="426.0">80</text><line stroke="lightgray" x1="100.0" x2="620.0" y1="460.0" y2="460.0" /><text fill="rgb(100, 100, 100)" font-family="Lato, Fira Code, sans-serif" font-size="20px" text-anchor="end" x="92.0" y="466.0">90</text><line stroke="lightgray" x1="100.0" x2="620.0" y1="500.0" y2="500.0" /><text fill="rgb(100, 100, 100)" font-family="Lato, Fira Code, sans-serif" font-size="20px" text-anchor="end" x="92.0" y="506.0">100</text><line stroke="lightgray" x1="100.0" x2="620.0" y1="540.0" y2="540.0" /><text fill="rgb(100, 100, 100)" font-family="Lato, Fira Code, sans-serif" font-size="20px" text-anchor="end" x="92.0" y="546.0">110</text><line stroke="lightgray" x1="100.0" x2="620.0" y1="580.0" y2="580.0" /><text fill="rgb(100, 100, 100)" font-family="Lato, Fira Code, sans-serif" font-size="20px" text-anchor="end" x="92.0" y="586.0">120</text><line stroke="lightgray" x1="100.0" x2="100.0" y1="60.0" y2="580.0" /><text fill="rgb(100, 100, 100)" font-family="Lato, Fira Code, sans-serif" font-size="20px" text-anchor="middle" x="100.0" y="52.0">125 Hz</text><line stroke="lightgray" x1="186.6667" x2="186.6667" y1="60.0" y2="580.0" /><text fill="rgb(100, 100, 100)" font-family="Lato, Fira Code, sans-serif" font-size="20px" text-anchor="middle" x="186.66666666666669" y="52.0">250</text><line stroke="lightgray" x1="273.3333" x2="273.3333" y1="60.0" y2="580.0" /><text fill="rgb(100, 100, 100)" font-family="Lato, Fira Code, sans-serif" font-size="20px" text-anchor="middle" x="273.33333333333337" y="52.0">500</text><line stroke="lightgray" x1="360.0" x2="360.0" y1="60.0" y2="580.0" /><text fill="rgb(100, 100, 100)" font-family="Lato, Fira Code, sans-serif" font-size="20px" text-anchor="middle" x="360.0" y="52.0">1000</text><line stroke="lightgray" x1="446.6667" x2="446.6667" y1="60.0" y2="580.0" /><text fill="rgb(100, 100, 100)" font-family="Lato, Fira Code, sans-serif" font-size="20px" text-anchor="middle" x="446.6666666666667" y="52.0">2000</text><line stroke="lightgray" x1="533.3333" x2="533.3333" y1="60.0" y2="580.0" /><text fill="rgb(100, 100, 100)" font-family="Lato, Fira Code, sans-serif" font-size="20px" text-anchor="middle" x="533.3333333333334" y="52.0">4000</text><line stroke="lightgray" x1="620.0" x2="620.0" y1="60.0" y2="580.0" /><text fill="rgb(100, 100, 100)" font-family="Lato, Fira Code, sans-serif" font-size="20px" text-anchor="middle" x="620.0" y="52.0">8000</text><line stroke="black" stroke-width="2" x1="100.0" x2="620.0" y1="180.0" y2="180.0" /><text fill="rgb(100, 100, 100)" font-family="Lato, Fira Code, sans-serif" font-size="20px" transform="rotate(-90 62.0 325.0)" x="62.0" y="325.0">dB HL</text><line stroke="lightgray" stroke-dasharray="5,7" x1="316.6667" x2="316.6667" y1="60.0" y2="580.0" /><line stroke="lightgray" stroke-dasharray="5,7" x1="403.3333" x2="403.3333" y1="60.0" y2="580.0" /><line stroke="lightgray" stroke-dasharray="5,7" x1="490.0" x2="490.0" y1="60.0" y2="580.0" /><line stroke="lightgray" stroke-dasharray="5,7" x1="576.6667" x2="576.6667" y1="60.0" y2="580.0" /><line stroke="black" stroke-dasharray="15,15" stroke-width="2" x1="100.0" x2="186.6667" y1="180.0" y2="160.0" /><line stroke="black" stroke-dasharray="15,15" stroke-width="2" x1="186.6667" x2="273.3333" y1="160.0" y2="140.0" /><line stroke="black" stroke-dasharray="15,15" stroke-width="2" x1="273.3333" x2="316.6667" y1="140.0" y2="180.0" /><line stroke="black" stroke-dasharray="15,15" stroke-width="2" x1="316.6667" x2="360.0" y1="180.0" y2="220.0" /><line stroke="black" stroke-dasharray="15,15" stroke-width="2" x1="360.0" x2="403.3333" y1="220.0" y2="260.0" /><line stroke="black" stroke-dasharray="15,15" stroke-width="2" x1="403.3333" x2="446.6667" y1="260.0" y2="240.0" /><line stroke="black" stroke-dasharray="15,15" stroke-width="2" x1="446.6667" x2="490.0" y1="240.0" y2="220.0" /><line stroke="black" stroke-dasharray="15,15" stroke-width="2" x1="490.0" x2="533.3333" y1="220.0" y2="200.0" /><line stroke="black" stroke-dasharray="15,15" stroke-width="2" x1="533.3333" x2="576.6667" y1="200.0" y2="200.0" /><line stroke="black" stroke-dasharray="15,15" stroke-width="2" x1="576.6667" x2="620.0" y1="200.0" y2="220.0" /><rect fill="white" height="10.0" stroke="red" stroke-linecap="round" stroke-width="2" width="10.0" x="95.0" y="175.0" /><rect fill="white" height="10.0" stroke="red" stroke-linecap="round" stroke-width="2" width="10.0" x="181.6667" y="155.0" /><rect fill="white" height="10.0" stroke="red" stroke-linecap="round" stroke-width="2" width="10.0" x="268.3333" y="135.0" /><rect fill="white" height="10.0" stroke="red" stroke-linecap="round" stroke-width="2" width="10.0" x="311.6667" y="175.0" /><rect fill="white" height="10.0" stroke="red" stroke-linecap="round" stroke-width="2" width="10.0" x="355.0" y="215.0" /><rect fill="white" height="10.0" stroke="red" stroke-linecap="round" stroke-width="2" width="10.0" x="398.3333" y="255.0" /><rect fill="white" height="10.0" stroke="red" stroke-linecap="round" stroke-width="2" width="10.0" x="441.6667" y="235.0" /><rect fill="white" height="10.0" stroke="red" stroke-linecap="round" stroke-width="2" width="10.0" x="485.0" y="215.0" /><rect fill="white" height="10.0" stroke="red" stroke-linecap="round" stroke-width="2" width="10.0" x="528.3333" y="195.0" /><rect fill="white" height="10.0" stroke="red" stroke-linecap="round" stroke-width="2" width="10.0" x="571.6667" y="195.0" /><rect fill="white" height="10.0" stroke="red" stroke-linecap="round" stroke-width="2" width="10.0" x="615.0" y="215.0" /><line stroke="lightgray" x1="165.0" x2="165.0" y1="600.0" y2="680.0" /><line stroke="lightgray" x1="208.3333" x2="208.3333" y1="600.0" y2="680.0" /><line stroke="lightgray" x1="251.6667" x2="251.6667" y1="600.0" y2="680.0" /><line stroke="lightgray" x1="295.0" x2="295.0" y1="600.0" y2="680.0" /><line stroke="lightgray" x1="295.0" x2="295.0" y1="600.0" y2="680.0" /><line stroke="lightgray" x1="338.3333" x2="338.3333" y1="600.0" y2="680.0" /><line stroke="lightgray" x1="338.3333" x2="338.3333" y1="600.0" y2="680.0" /><line stroke="lightgray" x1="381.6667" x2="381.6667" y1="600.0" y2="680.0" /><line stroke="lightgray" x1="381.6667" x2="381.6667" y1="600.0" y2="680.0" /><line stroke="lightgray" x1="425.0" x2="425.0" y1="600.0" y2="680.0" /><line stroke="lightgray" x1="425.0" x2="425.0" y1="600.0" y2="680.0" /><line stroke="lightgray" x1="468.3333" x2="468.3333" y1="600.0" y2="680.0" /><line stroke="lightgray" x1="468.3333" x2="468.3333" y1="600.0" y2="680.0" /><line stroke="lightgray" x1="511.6667" x2="511.6667" y1="600.0" y2="680.0" /><line stroke="lightgray" x1="511.6667" x2="511.6667" y1="600.0" y2="680.0" /><line stroke="lightgray" x1="555.0" x2="555.0" y1="600.0" y2="680.0" /><line stroke="lightgray" x1="555.0" x2="555.0" y1="600.0" y2="680.0" /><line stroke="lightgray" x1="598.3333" x2="598.3333" y1="600.0" y2="680.0" /><line stroke="lightgray" x1="598.3333" x2="598.3333" y1="600.0" y2="680.0" /><line stroke="lightgray" x1="641.6667" x2="641.6667" y1="600.0" y2="680.0" /><line stroke="lightgray" x1="100.0" x2="100.0" y1="600.0" y2="680.0" /><line stroke="lightgray" x1="100.0" x2="641.6667" y1="600.0" y2="600.0" /><line stroke="lightgray" x1="100.0" x2="641.6667" y1="640.0" y2="640.0" /><line stroke="lightgray" x1="100.0" x2="641.6667" y1="680.0" y2="680.0" /><rect fill="lightgray" height="80.0" stroke="none" width="65.0" x="100.0" y="600.0" /><rect fill="lightgray" height="80.0" stroke="none" width="43.3333" x="208.3333" y="600.0" /><rect fill="lightgray" height="40.0" stroke="none" width="86.6667" x="555.0" y="640.0" /><text fill="rgb(100, 100, 100)" font-family="Lato, Fira Code, sans-serif" font-size="20px" text-anchor="end" x="92.0" y="627.0">CA</text><text fill="rgb(100, 100, 100)" font-family="Lato, Fira Code, sans-serif" font-size="20px" text-anchor="end" x="92.0" y="667.0">CO</text><line stroke="lightgray" x1="920.0" x2="1440.0" y1="60.0" y2="60.0" /><line stroke="lightgray" x1="920.0" x2="1440.0" y1="100.0" y2="100.0" /><text fill="rgb(100, 100, 100)" font-family="Lato, Fira Code, sans-serif" font-size="20px" text-anchor="start" x="1448.0" y="106.0">0</text><line stroke="lightgray" x1="920.0" x2="1440.0" y1="140.0" y2="140.0" /><text fill="rgb(100, 100, 100)" font-family="Lato, Fira Code, sans-serif" font-size="20px" text-anchor="start" x="1448.0" y="146.0">10</text><line stroke="lightgray" x1="920.0" x2="1440.0" y1="180.0" y2="180.0" /><text fill="rgb(100, 100, 100)" font-family="Lato, Fira Code, sans-serif" font-size="20px" text-anchor="start" x="1448.0" y="186.0">20</text><line stroke="lightgray" x1="920.0" x2="1440.0" y1="220.0" y2="220.0" /><text fill="rgb(100, 100, 100)" font-family="Lato, Fira Code, sans-serif" font-size="20px" text-anchor="start" x="1448.0" y="226.0">30</text><line stroke="lightgray" x1="920.0" x2="1440.0" y1="260.0" y2="260.0" /><text fill="rgb(100, 100, 100)" font-family="Lato, Fira Code, sans-serif" font-size="20px" text-anchor="start" x="1448.0" y="266.0">40</text><line stroke="lightgray" x1="920.0" x2="1440.0" y1="300.0" y2="300.0" /><text fill="rgb(100, 100, 100)" font-family="Lato, Fira Code, sans-serif" font-size="20px" text-anchor="start" x="1448.0" y="306.0">50</text><line stroke="lightgray" x1="920.0" x2="1440.0" y1="340.0" y2="340.0" /><text fill="rgb(100, 100, 100)" font-family="Lato, Fira Code, sans-serif" font-size="20px" text-anchor="start" x="1448.0" y="346.0">60</text><line stroke="lightgray" x1="920.0" x2="1440.0" y1="380.0" y2="380.0" /><text fill="rgb(100, 100, 100)" font-family="Lato, Fira Code, sans-serif" font-size="20px" text-anchor="start" x="1448.0" y="386.0">70</text><line stroke="lightgray" x1="920.0" x2="1440.0" y1="420.0" y2="420.0" /><text fill="rgb(100, 100, 100)" font-family="Lato, Fira Code, sans-serif" font-size="20px" text-anchor="start" x="1448.0" y="426.0">80</text><line stroke="lightgray" x1="920.0" x2="1440.0" y1="460.0" y2="460.0" /><text fill="rgb(100, 100, 100)" font-family="Lato, Fira Code, sans-serif" font-size="20px" text-anchor="start" x="1448.0" y="466.0">90</text><line stroke="lightgray" x1="920.0" x2="1440.0" y1="500.0" y2="500.0" /><text fill="rgb(100, 100, 100)" font-family="Lato, Fira Code, sans-serif" font-size="20px" text-anchor="start" x="1448.0" y="506.0">100</text><line stroke="lightgray" x1="920.0" x2="1440.0" y1="540.0" y2="540.0" /><text fill="rgb(100, 100, 100)" font-family="Lato, Fira Code, sans-serif" font-size="20px" text-anchor="start" x="1448.0" y="546.0">110</text><line stroke="lightgray" x1="920.0" x2="1440.0" y1="580.0" y2="580.0" /><text fill="rgb(100, 100, 100)" font-family="Lato, Fira Code, sans-serif" font-size="20px" text-anchor="start" x="1448.0" y="586.0">120</text><line stroke="lightgray" x1="920.0" x2="920.0" y1="60.0" y2="580.0" /><text fill="rgb(100, 100, 100)" font-family="Lato, Fira Code, sans-serif" font-size="20px" text-anchor="middle" x="920.0" y="52.0">125 Hz</text><line stroke="lightgray" x1="1006.6667" x2="1006.6667" y1="60.0" y2="580.0" /><text fill="rgb(100, 100, 100)" font-family="Lato, Fira Code, sans-serif" font-size="20px" text-anchor="middle" x="1006.6666666666667" y="52.0">250</text><line stroke="lightgray" x1="1093.3333" x2="1093.3333" y1="60.0" y2="580.0" /><text fill="rgb(100, 100, 100)" font-family="Lato, Fira Code, sans-serif" font-size="20px" text-anchor="middle" x="1093.3333333333335" y="52.0">500</text><line stroke="lightgray" x1="1180.0" x2="1180.0" y1="60.0" y2="580.0" /><text fill="rgb(100, 100, 100)" font-family="Lato, Fira Code, sans-serif" font-size="20px" text-anchor="middle" x="1180.0" y="52.0">1000</text><line stroke="lightgray" x1="1266.6667" x2="1266.6667" y1="60.0" y2="580.0" /><text fill="rgb(100, 100, 100)" font-family="Lato, Fira Code, sans-serif" font-size="20px" text-anchor="middle" x="1266.6666666666667" y="52.0">2000</text><line stroke="lightgray" x1="1353.3333" x2="1353.3333" y1="60.0" y2="580.0" /><text fill="rgb(100, 100, 100)" font-family="Lato, Fira Code, sans-serif" font-size="20px" text-anchor="middle" x="1353.3333333333335" y="52.0">4000</text><line stroke="lightgray" x1="1440.0" x2="1440.0" y1="60.0" y2="580.0" /><text fill="rgb(100, 100, 100)" font-family="Lato, Fira Code, sans-serif" font-size="20px" text-anchor="middle" x="1440.0" y="52.0">8000</text><line stroke="black" stroke-width="2" x1="920.0" x2="1440.0" y1="180.0" y2="180.0" /><text fill="rgb(100, 100, 100)" font-family="Lato, Fira Code, sans-serif" font-size="20px" transform="rotate(90 1478.0 275.0)" x="1478.0" y="275.0">dB HL</text><line stroke="lightgray" stroke-dasharray="5,7" x1="1136.6667" x2="1136.6667" y1="60.0" y2="580.0" /><line stroke="lightgray" stroke-dasharray="5,7" x1="1223.3333" x2="1223.3333" y1="60.0" y2="580.0" /><line stroke="lightgray" stroke-dasharray="5,7" x1="1310.0" x2="1310.0" y1="60.0" y2="580.0" /><line stroke="lightgray" stroke-dasharray="5,7" x1="1396.6667" x2="1396.6667" y1="60.0" y2="580.0" /><line stroke="black" stroke-dasharray="15,15" stroke-width="2" x1="920.0" x2="1006.6667" y1="180.0" y2="160.0" /><line stroke="black" stroke-dasharray="15,15" stroke-width="2" x1="1006.6667" x2="1093.3333" y1="160.0" y2="140.0" /><line stroke="black" stroke-dasharray="15,15" stroke-width="2" x1="1093.3333" x2="1136.6667" y1="140.0" y2="180.0" /><line stroke="black" stroke-dasharray="15,15" stroke-width="2" x1="1136.6667" x2="1180.0" y1="180.0" y2="220.0" /><line stroke="black" stroke-dasharray="15,15" stroke-width="2" x1="1180.0" x2="1223.3333" y1="220.0" y2="260.0" /><line stroke="black" stroke-dasharray="15,15" stroke-width="2" x1="1223.3333" x2="1266.6667" y1="260.0" y2="240.0" /><line stroke="black" stroke-dasharray="15,15" stroke-width="2" x1="1266.6667" x2="1310.0" y1="240.0" y2="220.0" /><line stroke="black" stroke-dasharray="15,15" stroke-width="2" x1="1310.0" x2="1353.3333" y1="220.0" y2="200.0" /><line stroke="black" stroke-dasharray="15,15" stroke-width="2" x1="1353.3333" x2="1396.6667" y1="200.0" y2="200.0" /><line stroke="black" stroke-dasharray="15,15" stroke-width="2" x1="1396.6667" x2="1440.0" y1="200.0" y2="220.0" /><rect fill="white" height="10.0" stroke="red" stroke-linecap="round" stroke-width="2" width="10.0" x="915.0" y="175.0" /><rect fill="white" height="10.0" stroke="red" stroke-linecap="round" stroke-width="2" width="10.0" x="1001.6667" y="155.0" /><rect fill="white" height="10.0" stroke="red" stroke-linecap="round" stroke-width="2" width="10.0" x="1088.3333" y="135.0" /><rect fill="white" height="10.0" stroke="red" stroke-linecap="round" stroke-width="2" width="10.0" x="1131.6667" y="175.0" /><rect fill="white" height="10.0" stroke="red" stroke-linecap="round" stroke-width="2" width="10.0" x="1175.0" y="215.0" /><rect fill="white" height="10.0" stroke="red" stroke-linecap="round" stroke-width="2" width="10.0" x="1218.3333" y="255.0" /><rect fill="white" height="10.0" stroke="red" stroke-linecap="round" stroke-width="2" width="10.0" x="1261.6667" y="235.0" /><rect fill="white" height="10.0" stroke="red" stroke-linecap="round" stroke-width="2" width="10.0" x="1305.0" y="215.0" /><rect fill="white" height="10.0" stroke="red" stroke-linecap="round" stroke-width="2" width="10.0" x="1348.3333" y="195.0" /><rect fill="white" height="10.0" stroke="red" stroke-linecap="round" stroke-width="2" width="10.0" x="1391.6667" y="195.0" /><rect fill="white" height="10.0" stroke="red" stroke-linecap="round" stroke-width="2" width="10.0" x="1435.0" y="215.0" /><line stroke="lightgray" x1="985.0" x2="985.0" y1="600.0" y2="680.0" /><line stroke="lightgray" x1="1028.3333" x2="1028.3333" y1="600.0" y2="680.0" /><line stroke="lightgray" x1="1071.6667" x2="1071.6667" y1="600.0" y2="680.0" /><line stroke="lightgray" x1="1115.0" x2="1115.0" y1="600.0" y2="680.0" /><line stroke="lightgray" x1="1115.0" x2="1115.0" y1="600.0" y2="680.0" /><line stroke="lightgray" x1="1158.3333" x2="1158.3333" y1="600.0" y2="680.0" /><line stroke="lightgray" x1="1158.3333" x2="1158.3333" y1="600.0" y2="680.0" /><line stroke="lightgray" x1="1201.6667" x2="1201.6667" y1="600.0" y2="680.0" /><line stroke="lightgray" x1="1201.6667" x2="1201.6667" y1="600.0" y2="680.0" /><line stroke="lightgray" x1="1245.0" x2="1245.0" y1="600.0" y2="680.0" /><line stroke="lightgray" x1="1245.0" x2="1245.0" y1="600.0" y2="680.0" /><line stroke="lightgray" x1="1288.3333" x2="1288.3333" y1="600.0" y2="680.0" /><line stroke="lightgray" x1="1288.3333" x2="1288.3333" y1="600.0" y2="680.0" /><line stroke="lightgray" x1="1331.6667" x2="1331.6667" y1="600.0" y2="680.0" /><line stroke="lightgray" x1="1331.6667" x2="1331.6667" y1="600.0" y2="680.0" /><line stroke="lightgray" x1="1375.0" x2="1375.0" y1="600.0" y2="680.0" /><line stroke="lightgray" x1="1375.0" x2="1375.0" y1="600.0" y2="680.0" /><line stroke="lightgray" x1="1418.3333" x2="1418.3333" y1="600.0" y2="680.0" /><line stroke="lightgray" x1="1418.3333" x2="1418.3333" y1="600.0" y2="680.0" /><line stroke="lightgray" x1="1461.6667" x2="1461.6667" y1="600.0" y2="680.0" /><line stroke="lightgray" x1="920.0" x2="920.0" y1="600.0" y2="680.0" /><line stroke="lightgray" x1="920.0" x2="1461.6667" y1="600.0" y2="600.0" /><line stroke="lightgray" x1="920.0" x2="1461.6667" y1="640.0" y2="640.0" /><line stroke="lightgray" x1="920.0" x2="1461.6667" y1="680.0" y2="680.0" /><rect fill="lightgray" height="80.0" stroke="none" width="65.0" x="920.0" y="600.0" /><rect fill="lightgray" height="80.0" stroke="none" width="43.3333" x="1028.3333" y="600.0" /><rect fill="lightgray" height="40.0" stroke="none" width="86.6667" x="1375.0" y="640.0" /><text fill="rgb(100, 100, 100)" font-family="Lato, Fira Code, sans-serif" font-size="20px" text-anchor="start" x="1469.6666666666667" y="627.0">CA</text><text fill="rgb(100, 100, 100)" font-family="Lato, Fira Code, sans-serif" font-size="20px" text-anchor="start" x="1469.6666666666667" y="667.0">CO</text><line stroke="rgb(100, 100, 100)" stroke-linecap="round" stroke-width="2" x1="31.95" x2="30" y1="32.2" y2="32.2" /><path d="M 30.0 40.0 A 3.9 3.9 0 0 1 30.0 32.2" fill="none" stroke="rgb(100, 100, 100)" stroke-linecap="round" stroke-width="2" /><path d="M 30.0 40.0 A 3.9 3.9 0 0 1 30.0 47.8" fill="none" stroke="rgb(100, 100, 100)" stroke-linecap="round" stroke-width="2" /><line stroke="rgb(100, 100, 100)" stroke-linecap="round" stroke-width="2" x1="30" x2="27.27" y1="47.8" y2="47.8" /><circle cx="30" cy="40" fill="red" r="2" /><line stroke="rgb(100, 100, 100)" stroke-linecap="round" stroke-width="2" x1="24.15" x2="30" y1="87.8" y2="72.2" /><line stroke="rgb(100, 100, 100)" stroke-linecap="round" stroke-width="2" x1="30" x2="35.85" y1="72.2" y2="87.8" /><line stroke="rgb(100, 100, 100)" stroke-linecap="round" stroke-width="2" x1="27.075" x2="32.925" y1="81.56" y2="81.56" /><circle cx="30" cy="80" fill="red" r="2" /><line stroke="rgb(100, 100, 100)" stroke-linecap="round" stroke-width="2" x1="22.2" x2="17.0" y1="114.1033" y2="105.0967" /><line stroke="rgb(100, 100, 100)" stroke-linecap="round" stroke-width="2" x1="22.2" x2="17.0" y1="105.0967" y2="114.1033" /><line stroke="rgb(100, 100, 100)" stroke-linecap="round" stroke-width="2" x1="24.8" x2="14.4" y1="109.6" y2="109.6" /><circle cx="30" cy="120" fill="red" r="2" /><line stroke="rgb(100, 100, 100)" stroke-linecap="round" stroke-width="2" x1="39.75" x2="43" y1="153.5" y2="147.0" /><line stroke="rgb(100, 100, 100)" stroke-linecap="round" stroke-width="2" x1="39.75" x2="36.5" y1="153.5" y2="147.0" /><line stroke="rgb(100, 100, 100)" stroke-linecap="round" stroke-width="2" x1="48.4167" x2="48.4167" y1="153.5" y2="147.0" /><line stroke="rgb(100, 100, 100)" stroke-linecap="round" stroke-width="2" x1="45.1667" x2="51.6667" y1="147.0" y2="147.0" /><circle cx="30" cy="160" fill="red" r="2" /><path d="M23.5 200A6.5 6.5 0 1 0 36.5 200L36.5 191.55M23.5 200L23.5 191.55" fill="none" stroke="rgb(100, 100, 100)" stroke-linecap="round" stroke-width="2" /><circle cx="30" cy="200" fill="red" r="2" /><line stroke="rgb(100, 100, 100)" stroke-linecap="round" stroke-width="2" x1="36.5" x2="23.5" y1="233.5" y2="240" /><line stroke="rgb(100, 100, 100)" stroke-linecap="round" stroke-width="2" x1="23.5" x2="36.5" y1="240" y2="246.5" /><circle cx="30" cy="240" fill="red" r="2" /><line stroke="rgb(100, 100, 100)" stroke-linecap="round" stroke-width="2" x1="23.5" x2="36.5" y1="273.5" y2="280" /><line stroke="rgb(100, 100, 100)" stroke-linecap="round" stroke-width="2" x1="36.5" x2="23.5" y1="280" y2="286.5" /><circle cx="30" cy="280" fill="red" r="2" /><path d="M36.5 313.5L23.5 326.5M23.5 313.5L36.5 326.5" stroke="rgb(100, 100, 100)" stroke-linecap="round" stroke-width="2" /><circle cx="30" cy="320" fill="red" r="2" /><line fill="none" stroke="rgb(100, 100, 100)" stroke-linecap="round" stroke-width="2" x1="30" x2="35.2" y1="352.2" y2="352.2" /><line fill="none" stroke="rgb(100, 100, 100)" stroke-linecap="round" stroke-width="2" x1="35.2" x2="35.2" y1="352.2" y2="367.8" /><line fill="none" stroke="rgb(100, 100, 100)" stroke-linecap="round" stroke-width="2" x1="35.2" x2="30" y1="367.8" y2="367.8" /><circle cx="30" cy="360" fill="red" r="2" /><line fill="none" stroke="rgb(100, 100, 100)" stroke-linecap="round" stroke-width="2" x1="30" x2="24.8" y1="392.2" y2="392.2" /><line fill="none" stroke="rgb(100, 100, 100)" stroke-linecap="round" stroke-width="2" x1="24.8" x2="24.8" y1="392.2" y2="407.8" /><line fill="none" stroke="rgb(100, 100, 100)" stroke-linecap="round" stroke-width="2" x1="24.8" x2="30" y1="407.8" y2="407.8" /><circle cx="30" cy="400" fill="red" r="2" /><path d="M30 448.71L19.08 459.63M19.08 459.63L24.084999999999997 459.63M19.08 459.63L19.08 454.625" stroke="rgb(100, 100, 100)" stroke-linecap="round" stroke-width="2" /><circle cx="30" cy="440" fill="red" r="2" /><path d="M30 488.71L40.92 499.63M40.92 499.63L35.915 499.63M40.92 499.63L40.92 494.625" stroke="rgb(100, 100, 100)" stroke-linecap="round" stroke-width="2" /><circle cx="30" cy="480" fill="red" r="2" /><path d="M30 512.98L37.8 527.02L22.2 527.02Z" fill="white" stroke="rgb(100, 100, 100)" stroke-linecap="round" stroke-width="2" /><circle cx="30" cy="520" fill="red" r="2" /><circle cx="30" cy="560" fill="white" r="6.5" stroke="rgb(100, 100, 100)" stroke-width="2" /><circle cx="30" cy="560" fill="red" r="2" /><rect fill="white" height="13.0" stroke="rgb(100, 100, 100)" stroke-linecap="round" stroke-width="2" width="13.0" x="23.5" y="593.5" /><circle cx="30" cy="600" fill="red" r="2" /><text fill="rgb(100, 100, 100)" font-family="Lato, Fira Code, sans-serif" font-size="16px" text-anchor="start" x="659.0" y="75.0">DROITE</text><text fill="rgb(100, 100, 100)" font-family="Lato, Fira Code, sans-serif" font-size="16px" text-anchor="end" x="881.0" y="75.0">GAUCHE</text><rect fill="rgb(200, 200, 200)" height="25" stroke="none" width="250" x="645" y="84.0" /><text fill="rgb(100, 100, 100)" font-family="Lato, Fira Code, sans-serif" font-size="16px" text-anchor="middle" x="770.0" y="103.0">SEUIL AÉRIEN</text><text fill="rgb(100, 100, 100)" font-family="Lato, Fira Code, sans-serif" font-size="16px" text-anchor="middle" x="770.0" y="126.0">Non masqué</text><circle cx="670" cy="122.0" fill="white" r="5.0" stroke="rgb(100, 100, 100)" stroke-width="2" /><path d="M875.0 117.0L865.0 127.0M865.0 117.0L875.0 127.0" stroke="rgb(100, 100, 100)" stroke-linecap="round" stroke-width="2" /><text fill="rgb(100, 100, 100)" font-family="Lato, Fira Code, sans-serif" font-size="16px" text-anchor="middle" x="770.0" y="145.0">Masqué</text><rect fill="white" height="10.0" stroke="rgb(100, 100, 100)" stroke-linecap="round" stroke-width="2" width="10.0" x="665.0" y="136.0" /><path d="M870 135.6L876.0 146.4L864.0 146.4Z" fill="white" stroke="rgb(100, 100, 100)" stroke-linecap="round" stroke-width="2" /><text fill="rgb(100, 100, 100)" font-family="Lato, Fira Code, sans-serif" font-size="16px" text-anchor="middle" x="770.0" y="164.0">Inconfort</text><path d="M665.0 160.0A5.0 5.0 0 1 0 675.0 160.0L675.0 153.5M665.0 160.0L665.0 153.5" fill="none" stroke="rgb(100, 100, 100)" stroke-linecap="round" stroke-width="2" /><path d="M865.0 160.0A5.0 5.0 0 1 0 875.0 160.0L875.0 153.5M865.0 160.0L865.0 153.5" fill="none" stroke="rgb(100, 100, 100)" stroke-linecap="round" stroke-width="2" /><text fill="rgb(100, 100, 100)" font-family="Lato, Fira Code, sans-serif" font-size="16px" text-anchor="middle" x="770.0" y="183.0">Champ libre</text><line stroke="rgb(100, 100, 100)" stroke-linecap="round" stroke-width="2" x1="671.5" x2="670" y1="173.0" y2="173.0" /><path d="M 670.0 179.0 A 3.0 3.0 0 0 1 670.0 173.0" fill="none" stroke="rgb(100, 100, 100)" stroke-linecap="round" stroke-width="2" /><path d="M 670.0 179.0 A 3.0 3.0 0 0 1 670.0 185.0" fill="none" stroke="rgb(100, 100, 100)" stroke-linecap="round" stroke-width="2" /><line stroke="rgb(100, 100, 100)" stroke-linecap="round" stroke-width="2" x1="670" x2="667.9" y1="185.0" y2="185.0" /><line stroke="rgb(100, 100, 100)" stroke-linecap="round" stroke-width="2" x1="871.5" x2="870" y1="173.0" y2="173.0" /><path d="M 870.0 179.0 A 3.0 3.0 0 0 1 870.0 173.0" fill="none" stroke="rgb(100, 100, 100)" stroke-linecap="round" stroke-width="2" /><path d="M 870.0 179.0 A 3.0 3.0 0 0 1 870.0 185.0" fill="none" stroke="rgb(100, 100, 100)" stroke-linecap="round" stroke-width="2" /><line stroke="rgb(100, 100, 100)" stroke-linecap="round" stroke-width="2" x1="870" x2="867.9" y1="185.0" y2="185.0" /><text fill="rgb(100, 100, 100)" font-family="Lato, Fira Code, sans-serif" font-size="16px" text-anchor="middle" x="770.0" y="202.0">Avec appareil auditif</text><line stroke="rgb(100, 100, 100)" stroke-linecap="round" stroke-width="2" x1="665.5" x2="670" y1="204.0" y2="192.0" /><line stroke="rgb(100, 100, 100)" stroke-linecap="round" stroke-width="2" x1="670" x2="674.5" y1="192.0" y2="204.0" /><line stroke="rgb(100, 100, 100)" stroke-linecap="round" stroke-width="2" x1="667.75" x2="672.25" y1="199.2" y2="199.2" /><line stroke="rgb(100, 100, 100)" stroke-linecap="round" stroke-width="2" x1="865.5" x2="870" y1="204.0" y2="192.0" /><line stroke="rgb(100, 100, 100)" stroke-linecap="round" stroke-width="2" x1="870" x2="874.5" y1="192.0" y2="204.0" /><line stroke="rgb(100, 100, 100)" stroke-linecap="round" stroke-width="2" x1="867.75" x2="872.25" y1="199.2" y2="199.2" /><rect fill="rgb(200, 200, 200)" height="25" stroke="none" width="250" x="645" y="208.0" /><text fill="rgb(100, 100, 100)" font-family="Lato, Fira Code, sans-serif" font-size="16px" text-anchor="middle" x="770.0" y="226.0">SEUIL OSSEUX</text><text fill="rgb(100, 100, 100)" font-family="Lato, Fira Code, sans-serif" font-size="16px" text-anchor="middle" x="770.0" y="249.0">Non masqué </text><line stroke="rgb(100, 100, 100)" stroke-linecap="round" stroke-width="2" x1="675.0" x2="665.0" y1="240.0" y2="245.0" /><line stroke="rgb(100, 100, 100)" stroke-linecap="round" stroke-width="2" x1="665.0" x2="675.0" y1="245.0" y2="250.0" /><line stroke="rgb(100, 100, 100)" stroke-linecap="round" stroke-width="2" x1="865.0" x2="875.0" y1="240.0" y2="245.0" /><line stroke="rgb(100, 100, 100)" stroke-linecap="round" stroke-width="2" x1="875.0" x2="865.0" y1="245.0" y2="250.0" /><text fill="rgb(100, 100, 100)" font-family="Lato, Fira Code, sans-serif" font-size="16px" text-anchor="middle" x="770.0" y="268.0">Masqué </text><line fill="none" stroke="rgb(100, 100, 100)" stroke-linecap="round" stroke-width="2" x1="670" x2="666.0" y1="258.0" y2="258.0" /><line fill="none" stroke="rgb(100, 100, 100)" stroke-linecap="round" stroke-width="2" x1="666.0" x2="666.0" y1="258.0" y2="270.0" /><line fill="none" stroke="rgb(100, 100, 100)" stroke-linecap="round" stroke-width="2" x1="666.0" x2="670" y1="270.0" y2="270.0" /><line fill="none" stroke="rgb(100, 100, 100)" stroke-linecap="round" stroke-width="2" x1="870" x2="874.0" y1="258.0" y2="258.0" /><line fill="none" stroke="rgb(100, 100, 100)" stroke-linecap="round" stroke-width="2" x1="874.0" x2="874.0" y1="258.0" y2="270.0" /><line fill="none" stroke="rgb(100, 100, 100)" stroke-linecap="round" stroke-width="2" x1="874.0" x2="870" y1="270.0" y2="270.0" /><rect fill="rgb(200, 200, 200)" height="9.0" stroke="none" width="250" x="645" y="278.0" /><text fill="rgb(100, 100, 100)" font-family="Lato, Fira Code, sans-serif" font-size="16px" text-anchor="middle" x="770.0" y="301.0">Pas de réponse</text><path d="M675 293.7L666.6 302.09999999999997M666.6 302.09999999999997L670.45 302.09999999999997M666.6 302.09999999999997L666.6 298.24999999999994" stroke="rgb(100, 100, 100)" stroke-linecap="round" stroke-width="2" /><path d="M865 293.7L873.4 302.09999999999997M873.4 302.09999999999997L869.55 302.09999999999997M873.4 302.09999999999997L873.4 298.24999999999994" stroke="rgb(100, 100, 100)" stroke-linecap="round" stroke-width="2" /><text fill="rgb(100, 100, 100)" font-family="Lato, Fira Code, sans-serif" font-size="16px" text-anchor="middle" x="770.0" y="320.0">Vibrotactile</text><line stroke="rgb(100, 100, 100)" stroke-linecap="round" stroke-width="2" x1="867.5" x2="870" y1="318.0" y2="313.0" /><line stroke="rgb(100, 100, 100)" stroke-linecap="round" stroke-width="2" x1="867.5" x2="865.0" y1="318.0" y2="313.0" /><line stroke="rgb(100, 100, 100)" stroke-linecap="round" stroke-width="2" x1="874.1667" x2="874.1667" y1="318.0" y2="313.0" /><line stroke="rgb(100, 100, 100)" stroke-linecap="round" stroke-width="2" x1="871.6667" x2="876.6667" y1="313.0" y2="313.0" /><line stroke="rgb(100, 100, 100)" stroke-linecap="round" stroke-width="2" x1="667.5" x2="670" y1="318.0" y2="313.0" /><line stroke="rgb(100, 100, 100)" stroke-linecap="round" stroke-width="2" x1="667.5" x2="665.0" y1="318.0" y2="313.0" /><line stroke="rgb(100, 100, 100)" stroke-linecap="round" stroke-width="2" x1="674.1667" x2="674.1667" y1="318.0" y2="313.0" /><line stroke="rgb(100, 100, 100)" stroke-linecap="round" stroke-width="2" x1="671.6667" x2="676.6667" y1="313.0" y2="313.0" /><text fill="rgb(100, 100, 100)" font-family="Lato, Fira Code, sans-serif" font-size="16px" text-anchor="middle" x="770.0" y="339.0">Surassourdissement ou</text><text fill="rgb(100, 100, 100)" font-family="Lato, Fira Code, sans-serif" font-size="16px" text-anchor="middle" x="770.0" y="359.0">masque insuffisant</text><line stroke="rgb(100, 100, 100)" stroke-linecap="round" stroke-width="2" x1="872.0" x2="868.0" y1="350.4641" y2="343.5359" /><line stroke="rgb(100, 100, 100)" stroke-linecap="round" stroke-width="2" x1="872.0" x2="868.0" y1="343.5359" y2="350.4641" /><line stroke="rgb(100, 100, 100)" stroke-linecap="round" stroke-width="2" x1="874.0" x2="866.0" y1="347.0" y2="347.0" /><line stroke="rgb(100, 100, 100)" stroke-linecap="round" stroke-width="2" x1="672.0" x2="668.0" y1="350.4641" y2="343.5359" /><line stroke="rgb(100, 100, 100)" stroke-linecap="round" stroke-width="2" x1="672.0" x2="668.0" y1="343.5359" y2="350.4641" /><line stroke="rgb(100, 100, 100)" stroke-linecap="round" stroke-width="2" x1="674.0" x2="666.0" y1="347.0" y2="347.0" /><rect fill="none" height="309.0" rx="0" ry="0" stroke="rgb(100, 100, 100)" stroke-width="1.5" width="250" x="645" y="60" /><rect fill="rgb(200, 200, 200)" height="18" stroke="none" width="250" x="645" y="384.0" /><text fill="rgb(100, 100, 100)" font-family="Lato, Fira Code, sans-serif" font-size="16px" text-anchor="middle" x="770.0" y="399.0">VALIDITÉ</text><text fill="rgb(100, 100, 100)" font-family="Lato, Fira Code, sans-serif" font-size="16px" text-anchor="middle" x="770.0" y="417.0">Bonne</text><rect fill="rgb(200, 200, 200)" height="18" stroke="none" width="250" x="645" y="425.0" /><text fill="rgb(100, 100, 100)" font-family="Lato, Fira Code, sans-serif" font-size="16px" text-anchor="middle" x="770.0" y="440.0">ÉCOUTEURS</text><text fill="rgb(100, 100, 100)" font-family="Lato, Fira Code, sans-serif" font-size="16px" text-anchor="middle" x="770.0" y="458.0">Supra et intra</text><rect fill="rgb(200, 200, 200)" height="18" stroke="none" width="250" x="645" y="466.0" /><text fill="rgb(100, 100, 100)" font-family="Lato, Fira Code, sans-serif" font-size="16px" text-anchor="middle" x="770.0" y="481.0">MÉTHODE D'ÉVALUATION</text><text fill="rgb(100, 100, 100)" font-family="Lato, Fira Code, sans-serif" font-size="16px" text-anchor="middle" x="770.0" y="496.0">standard (Hughson-Westlake)</text><rect fill="rgb(200, 200, 200)" height="18" stroke="none" width="250" x="645" y="504.0" /><text fill="rgb(100, 100, 100)" font-family="Lato, Fira Code, sans-serif" font-size="16px" text-anchor="middle" x="770.0" y="519.0">AUDIOMÈTRE</text><text fill="rgb(100, 100, 100)" font-family="Lato, Fira Code, sans-serif" font-size="16px" text-anchor="middle" x="770.0" y="537.0">AD629</text><rect fill="rgb(200, 200, 200)" height="18" stroke="none" width="250" x="645" y="545.0" /><text fill="rgb(100, 100, 100)" font-family="Lato, Fira Code, sans-serif" font-size="16px" text-anchor="middle" x="770.0" y="560.0">DATE SEUILS ANTÉRIEURS</text><text fill="rgb(100, 100, 100)" font-family="Lato, Fira Code, sans-serif" font-size="16px" text-anchor="middle" x="770.0" y="578.0">01-01-2021</text><rect fill="rgb(200, 200, 200)" height="18" stroke="none" width="250" x="645" y="586.0" /><text fill="rgb(100, 100, 100)" font-family="Lato, Fira Code, sans-serif" font-size="16px" text-anchor="middle" x="770.0" y="601.0">REPOS SONORE ADÉQUAT</text><text fill="rgb(100, 100, 100)" font-family="Lato, Fira Code, sans-serif" font-size="16px" text-anchor="middle" x="770.0" y="619.0">Oui</text><text fill="rgb(100, 100, 100)" font-family="Lato, Fira Code, sans-serif" font-size="16px" text-anchor="middle" x="770.0" y="659.0">Normes ANSI S3 en vigueur</text><rect fill="none" height="300" rx="0" ry="0" stroke="rgb(100, 100, 100)" stroke-width="1.5" width="250" x="645" y="379.0" /></svg>