<?xml version="1.0" encoding="utf-8" ?>
<svg baseProfile="tiny" height="1980.0" version="1.2" width="1530.0" xmlns="http://www.w3.org/2000/svg" xmlns:ev="http://www.w3.org/2001/xml-events" xmlns:xlink="http://www.w3.org/1999/xlink"><defs /><line stroke="lightgray" x1="100.0" x2="620.0" y1="60" y2="60" /><line stroke="lightgray" x1="100.0" x2="620.0" y1="100" y2="100" /><text fill="rgb(70, 70, 70)" font-family="FiraCode-Regular" font-size="20px" text-anchor="end" x="92.0" y="106">0</text><line stroke="lightgray" x1="100.0" x2="620.0" y1="140" y2="140" /><text fill="rgb(70, 70, 70)" font-family="FiraCode-Regular" font-size="20px" text-anchor="end" x="92.0" y="146">10</text><line stroke="lightgray" x1="100.0" x2="620.0" y1="180" y2="180" /><text fill="rgb(70, 70, 70)" font-family="FiraCode-Regular" font-size="20px" text-anchor="end" x="92.0" y="186">20</text><line stroke="lightgray" x1="100.0" x2="620.0" y1="220" y2="220" /><text fill="rgb(70, 70, 70)" font-family="FiraCode-Regular" font-size="20px" text-anchor="end" x="92.0" y="226">30</text><line stroke="lightgray" x1="100.0" x2="620.0" y1="260" y2="260" /><text fill="rgb(70, 70, 70)" font-family="FiraCode-Regular" font-size="20px" text-anchor="end" x="92.0" y="266">40</text><line stroke="lightgray" x1="100.0" x2="620.0" y1="300" y2="300" /><text fill="rgb(70, 70, 70)" font-family="FiraCode-Regular" font-size="20px" text-anchor="end" x="92.0" y="306">50</text><line stroke="lightgray" x1="100.0" x2="620.0" y1="340" y2="340" /><text fill="rgb(70, 70, 70)" font-family="FiraCode-Regular" font-size="20px" text-anchor="end" x="92.0" y="346">60</text><line stroke="lightgray" x1="100.0" x2="620.0" y1="380" y2="380" /><text fill="rgb(70, 70, 70)" font-family="FiraCode-Regular" font-size="20px" text-anchor="end" x="92.0" y="386">70</text><line stroke="lightgray" x1="100.0" x2="620.0" y1="420" y2="420" /><text fill="rgb(70, 70, 70)" font-family="FiraCode-Regular" font-size="20px" text-anchor="end" x="92.0" y="426">80</text><line stroke="lightgray" x1="100.0" x2="620.0" y1="460" y2="460" /><text fill="rgb(70, 70, 70)" font-family="FiraCode-Regular" font-size="20px" text-anchor="end" x="92.0" y="466">90</text><line stroke="lightgray" x1="100.0" x2="620.0" y1="500" y2="500" /><text fill="rgb(70, 70, 70)" font-family="FiraCode-Regular" font-size="20px" text-anchor="end" x="92.0" y="506">100</text><line stroke="lightgray" x1="100.0" x2="620.0" y1="540" y2="540" /><text fill="rgb(70, 70, 70)" font-family="FiraCode-Regular" font-size="20px" text-anchor="end" x="92.0" y="546">110</text><line stroke="lightgray" x1="100.0" x2="620.0" y1="580" y2="580" /><text fill="rgb(70, 70, 70)" font-family="FiraCode-Regular" font-size="20px" text-anchor="end" x="92.0" y="586">120</text><line stroke="lightgray" x1="100.0" x2="100.0" y1="60" y2="580" /><text fill="rgb(70, 70, 70)" font-family="FiraCode-Regular" font-size="20px" text-anchor="middle" x="100.0" y="52">125 Hz</text><line stroke="lightgray" x1="186.6667" x2="186.6667" y1="60" y2="580" /><text fill="rgb(70, 70, 70)" font-family="FiraCode-Regular" font-size="20px" text-anchor="middle" x="186.66666666666669" y="52">250</text><line stroke="lightgray" x1="273.3333" x2="273.3333" y1="60" y2="580" /><text fill="rgb(70, 70, 70)" font-family="FiraCode-Regular" font-size="20px" text-anchor="middle" x="273.33333333333337" y="52">500</text><line stroke="lightgray" x1="360.0" x2="360.0" y1="60" y2="580" /><text fill="rgb(70, 70, 70)" font-family="FiraCode-Regular" font-size="20px" text-anchor="middle" x="360.0" y="52">1000</text><line stroke="lightgray" x1="446.6667" x2="446.6667" y1="60" y2="580" /><text fill="rgb(70, 70, 70)" font-family="FiraCode-Regular" font-size="20px" text-anchor="middle" x="446.6666666666667" y="52">2000</text><line stroke="lightgray" x1="533.3333" x2="533.3333" y1="60" y2="580" /><text fill="rgb(70, 70, 70)" font-family="FiraCode-Regular" font-size="20px" text-anchor="middle" x="533.3333333333334" y="52">4000</text><line stroke="lightgray" x1="620.0" x2="620.0" y1="60" y2="580" /><text fill="rgb(70, 70, 70)" font-family="FiraCode-Regular" font-size="20px" text-anchor="middle" x="620.0" y="52">8000</text><line stroke="black" stroke-width="2" x1="100.0" x2="620.0" y1="180" y2="180" /><text fill="rgb(70, 70, 70)" font-family="FiraCode-Regular" font-size="15px" transform="rotate(-90 30 270)" x="-20" y="305">dB HL</text><line stroke="lightgray" stroke-dasharray="5,5" x1="316.6667" x2="316.6667" y1="60" y2="580" /><line stroke="lightgray" stroke-dasharray="5,5" x1="403.3333" x2="403.3333" y1="60" y2="580" /><line stroke="lightgray" stroke-dasharray="5,5" x1="490.0" x2="490.0" y1="60" y2="580" /><line stroke="lightgray" stroke-dasharray="5,5" x1="576.6667" x2="576.6667" y1="60" y2="580" /><line stroke="black" stroke-dasharray="15,15" stroke-width="2" x1="100.0" x2="186.6667" y1="180" y2="160" /><line stroke="black" stroke-dasharray="15,15" stroke-width="2" x1="186.6667" x2="273.3333" y1="160" y2="140" /><line stroke="black" stroke-dasharray="15,15" stroke-width="2" x1="273.3333" x2="316.6667" y1="140" y2="180" /><line stroke="black" stroke-dasharray="15,15" stroke-width="2" x1="316.6667" x2="360.0" y1="180" y2="220" /><line stroke="black" stroke-dasharray="15,15" stroke-width="2" x1="360.0" x2="403.3333" y1="220" y2="260" /><line stroke="black" stroke-dasharray="15,15" stroke-width="2" x1="403.3333" x2="446.6667" y1="260" y2="240" /><line stroke="black" stroke-dasharray="15,15" stroke-width="2" x1="446.6667" x2="490.0" y1="240" y2="220" /><line stroke="black" stroke-dasharray="15,15" stroke-width="2" x1="490.0" x2="533.3333" y1="220" y2="200" /><line stroke="black" stroke-dasharray="15,15" stroke-width="2" x1="533.3333" x2="576.6667" y1="200" y2="200" /><line stroke="black" stroke-dasharray="15,15" stroke-width="2" x1="576.6667" x2="620.0" y1="200" y2="220" /><rect fill="white" height="10" stroke="red" width="10" x="95.0" y="175.0" /><rect fill="white" height="10" stroke="red" width="10" x="181.6667" y="155.0" /><rect fill="white" height="10" stroke="red" width="10" x="268.3333" y="135.0" /><rect fill="white" height="10" stroke="red" width="10" x="311.6667" y="175.0" /><rect fill="white" height="10" stroke="red" width="10" x="355.0" y="215.0" /><rect fill="white" height="10" stroke="red" width="10" x="398.3333" y="255.0" /><rect fill="white" height="10" stroke="red" width="10" x="441.6667" y="235.0" /><rect fill="white" height="10" stroke="red" width="10" x="485.0" y="215.0" /><rect fill="white" height="10" stroke="red" width="10" x="528.3333" y="195.0" /><rect fill="white" height="10" stroke="red" width="10" x="571.6667" y="195.0" /><rect fill="white" height="10" stroke="red" width="10" x="615.0" y="215.0" /></svg>